<svg width="253" height="67" viewBox="0 0 253 67" fill="none" xmlns="http://www.w3.org/2000/svg">
<g filter="url(#filter0_ddd)">
<rect x="3" y="2" width="247" height="61" rx="30.5" fill="#212121"/>
</g>
<mask id="mask0" mask-type="alpha" maskUnits="userSpaceOnUse" x="3" y="2" width="247" height="61">
<rect x="3" y="2" width="247" height="61" rx="30.5" fill="black"/>
</mask>
<g mask="url(#mask0)">
<path fill-rule="evenodd" clip-rule="evenodd" d="M3 2H250V63H3V2Z" fill="white" fill-opacity="0.12"/>
</g>
<path d="M60.0164 39.15L61.0664 37.02L64.1564 32.28L64.6964 31.38L64.6664 29.19L64.1264 28.5L64.1564 28.56L61.8764 25.53L61.0964 24.15L60.0464 23.1L59.7164 22.11L57.8564 19.56L56.2664 20.04L54.9764 20.43L55.0064 21.54L55.0964 23.1L55.3964 23.49L55.0964 24.06L55.1264 31.92L55.3064 33.09L55.1264 39.81V39.78L55.0664 41.79L57.0164 42.06L58.0064 42.33L60.0164 39.15ZM57.7964 27.93L57.7064 23.58L57.8864 23.79L60.8564 28.56L61.4564 29.04L61.5764 29.76L62.1164 30.57L61.5764 31.44L60.5864 33.09L59.3264 35.52L59.5664 35.79L59.0264 36.06L57.7064 38.19L57.6764 38.25L57.7064 36.63L57.8264 30.69L57.3464 29.28L57.7964 27.93ZM71.8809 19.89L71.6109 19.92H70.5009L70.4409 20.13L70.2609 21.03L70.1409 21.21L68.5209 25.26L68.6709 25.59L68.1309 25.98L66.5109 29.91L66.2709 30.06L66.3309 31.95L67.0509 33.48L68.1309 36.03L69.0309 37.89H69.3609L69.2709 38.4L70.3209 41.01L70.3509 42L73.0809 42.03L73.1409 41.7L73.5009 40.74L75.1209 36.9L75.8109 35.46L75.8409 34.98L76.0809 34.68L77.5509 31.71L77.6409 30.06L76.6209 27.84L75.8109 26.04H75.5109L75.3609 25.23L73.8309 21.48L73.2309 19.83L71.8809 19.89ZM71.9409 38.19L70.6209 34.74L70.0209 33.51L69.4209 33.09L69.7209 32.73L69.4509 31.86L69.0609 30.87L69.0309 30.51L70.0209 27.93L69.8109 27.45L70.2309 27.33L71.8809 22.98L72.0609 23.55L72.7509 25.38L73.2909 25.71L73.0209 26.07L74.1909 29.1L74.5509 30.12L74.7909 30.87L73.3209 34.47L73.3509 35.01H73.3809L73.0209 35.37L72.0609 38.52L71.9409 38.19ZM86.1914 39.3L83.9114 39.36V38.49L83.7914 36.39L83.8214 36.36L83.7314 34.29L83.6714 32.46L83.3114 32.07L83.6414 31.56V30.09L83.8214 26.79L83.9114 23.43L84.0314 22.41L84.0614 20.46L83.3114 19.77L82.3214 20.01H80.7614L80.9714 23.28L81.4514 23.43L81.0614 23.94L81.1214 33.72L80.9114 38.67L81.1814 39.42L80.7914 39.96L80.8514 42L82.2014 42.06L83.5214 41.82L83.7914 42H85.0814L85.5014 41.97L87.7814 42.12L88.2314 41.55L88.3514 39.66L88.2614 39.03L86.8514 39.09L86.1914 39.3ZM97.9823 35.85L98.2223 36.84L98.4923 37.02L98.2523 37.32L98.3723 38.16L98.7623 41.94L99.2723 42.21H99.6623L101.882 41.49L101.552 40.2L101.102 39.72L101.282 39.48L100.982 37.59L100.232 34.8V34.38L98.7923 27.15L98.4323 26.88L98.6423 26.34L97.6823 21.75L97.5623 21.45L97.4723 21.21L97.5023 20.16L96.9923 19.92L94.5323 20.04L94.2323 21.93L93.9623 23.19L93.7523 24.39L94.0823 24.84L93.5423 25.47L92.6423 29.49V30.03L92.4623 30.66L92.3723 31.23L91.7723 34.92L91.8023 35.52L91.4723 35.85L91.1723 37.74L90.3623 41.4L91.4123 42.06L93.2723 42.24L93.6023 40.23L93.3923 39.39L93.6623 39.06L93.9923 36.93L94.5923 36.69L94.8623 36.57L96.8723 36.09L97.4723 35.67H97.5023L97.9223 35.61L97.9823 35.85ZM95.2223 28.98L95.0723 28.5L95.3723 28.35L95.9723 24.69L96.4223 27.87L96.5423 28.41L96.6623 29.97L97.2623 33.21L96.4223 33.42L94.4723 34.02L94.5023 33.81L94.8623 31.86L94.8323 31.89L95.2223 28.98ZM103.481 33.12L104.561 35.07L105.941 36.36L105.701 36.9L107.981 40.44L108.041 40.8L109.061 42.39L110.081 41.73L111.641 40.44L110.951 39.33L109.391 37.29L108.011 34.95L106.901 33.24L106.631 32.64L106.211 32.22L105.911 31.65L105.461 30.78L105.851 30.06L106.421 29.04L107.411 27.48L109.211 24.81L109.361 24L109.871 23.67L110.711 22.5L111.551 21L109.301 19.5L108.251 20.73L108.221 20.97L106.541 23.73V23.85L105.791 25.05V25.77L104.711 26.82L102.761 30.12L102.791 32.04L103.481 33.12ZM118.348 20.07L116.998 20.04L116.338 20.43L116.218 19.98L113.788 19.95L113.578 22.38L114.088 22.92L115.228 22.86L116.308 22.74L117.898 22.65H118.978L118.918 23.31L118.078 25.83L118.618 26.1L117.928 26.67L116.968 29.7L115.888 32.82L114.598 35.91V36.63L113.338 39.84L113.938 42H115.618L117.328 41.61L117.598 41.91L118.648 41.94H120.658L122.128 42.12L122.368 40.41V39.39L121.918 38.94L119.578 39.21L118.348 39.24L116.698 39.27L117.418 36.51L117.118 36.15L117.718 35.46L118.408 32.88L118.378 32.94L119.938 29.04L120.418 27.18L121.078 24.84L121.048 24.96L121.978 22.62L122.308 22.59L122.248 21.18L122.008 19.92L120.988 19.95L118.348 20.07ZM138.04 39.15L139.09 37.02L142.18 32.28L142.72 31.38L142.69 29.19L142.15 28.5L142.18 28.56L139.9 25.53L139.12 24.15L138.07 23.1L137.74 22.11L135.88 19.56L134.29 20.04L133 20.43L133.03 21.54L133.12 23.1L133.42 23.49L133.12 24.06L133.15 31.92L133.33 33.09L133.15 39.81V39.78L133.09 41.79L135.04 42.06L136.03 42.33L138.04 39.15ZM135.82 27.93L135.73 23.58L135.91 23.79L138.88 28.56L139.48 29.04L139.6 29.76L140.14 30.57L139.6 31.44L138.61 33.09L137.35 35.52L137.59 35.79L137.05 36.06L135.73 38.19L135.7 38.25L135.73 36.63L135.85 30.69L135.37 29.28L135.82 27.93ZM149.904 19.89L149.634 19.92H148.524L148.464 20.13L148.284 21.03L148.164 21.21L146.544 25.26L146.694 25.59L146.154 25.98L144.534 29.91L144.294 30.06L144.354 31.95L145.074 33.48L146.154 36.03L147.054 37.89H147.384L147.294 38.4L148.344 41.01L148.374 42L151.104 42.03L151.164 41.7L151.524 40.74L153.144 36.9L153.834 35.46L153.864 34.98L154.104 34.68L155.574 31.71L155.664 30.06L154.644 27.84L153.834 26.04H153.534L153.384 25.23L151.854 21.48L151.254 19.83L149.904 19.89ZM149.964 38.19L148.644 34.74L148.044 33.51L147.444 33.09L147.744 32.73L147.474 31.86L147.084 30.87L147.054 30.51L148.044 27.93L147.834 27.45L148.254 27.33L149.904 22.98L150.084 23.55L150.774 25.38L151.314 25.71L151.044 26.07L152.214 29.1L152.574 30.12L152.814 30.87L151.344 34.47L151.374 35.01H151.404L151.044 35.37L150.084 38.52L149.964 38.19ZM169.822 29.55L169.852 32.04L169.972 32.4L170.032 32.64L169.852 37.38L169.822 37.56L168.802 35.34L168.322 35.4L168.292 34.47L166.522 31.56L165.982 30.69L166.372 30.09L167.062 28.77L168.232 26.85L170.512 23.64L170.482 23.22L171.532 22.32L172.222 21.15L171.442 20.43L171.112 20.19L169.972 19.53L168.562 21.48L168.622 21.81L167.032 23.73L166.732 24.54L164.452 28.02L163.882 29.1L163.732 29.31L163.282 29.61L163.222 31.83L164.662 34.02L165.562 35.25L166.252 36.57L166.282 36.6L167.752 39.24L168.802 40.83L169.162 41.55L169.552 42.33L172.402 42.03L172.372 40.68L172.102 40.26L172.372 40.08L172.522 32.64L172.432 32.46L172.792 30.33L172.432 29.43L169.822 29.55ZM179.752 32.76L180.952 35.19L181.222 35.88L182.332 37.98L182.692 38.16L182.662 38.67L183.712 41.07L184.432 42.24L186.862 40.89L186.892 40.02L185.902 38.97L185.362 37.83V37.86L184.942 36.99L184.762 36.9V36.51L183.562 34.47C183.352 34.17 183.172 34.02 182.932 33.75V33.24C182.752 32.88 182.392 32.37 182.182 31.95L183.022 30.81L183.532 30.18L184.492 29.04L185.872 27.36L186.082 25.56L184.642 24.24C184.612 24.24 184.132 24.39 184.102 24.36L183.922 23.61L179.152 19.47L176.782 20.43L176.902 23.01L177.052 28.74L176.812 29.34L176.872 30.9L176.992 34.41V35.58L177.262 35.97L176.812 37.14L176.632 41.91L178.612 42.09L179.812 41.61L179.782 39.12L179.692 38.85L179.602 35.85L179.572 32.58L179.752 32.76ZM179.632 29.94L179.512 27.27L179.452 26.94L179.392 26.76L179.272 26.22L179.512 25.65V25.35L179.572 23.04L182.332 25.77L182.542 25.92L183.142 26.67L182.812 27.09C182.422 27.63 181.702 28.56 181.282 29.07L179.782 30.93L179.572 31.05L179.632 29.94ZM193.902 42.09L194.772 41.49L194.562 39.54L194.592 38.25L194.472 37.74L194.592 35.58L194.232 35.28L194.562 34.38L194.532 33.51L194.622 33.18L194.592 32.31L195.462 29.88L196.632 26.46L197.082 25.14L197.532 24.21L197.742 23.79L197.412 23.52L198.102 23.22L198.942 21.06L198.012 20.4L197.382 20.19L196.032 19.8L195.762 21.27L195.402 22.14L194.892 24.18L194.442 25.17L193.992 26.94L193.452 28.83L193.332 28.98L193.002 27.9L192.672 27.42L192.762 27.18L192.522 26.1L191.952 24.93L191.322 22.68L191.082 21.96V21.45L190.482 19.83L189.492 20.07L187.842 20.58L187.782 21.54L188.472 22.77L189.042 23.01L188.862 23.97L189.372 25.35L189.792 26.37V26.34L190.962 29.31L191.592 31.14L191.892 32.58L191.832 33.87L191.952 37.74L192.252 38.13L191.892 38.85L191.682 40.32L191.622 42.03L193.902 42.09Z" fill="white"/>
<defs>
<filter id="filter0_ddd" x="0" y="0" width="253" height="67" filterUnits="userSpaceOnUse" color-interpolation-filters="sRGB">
<feFlood flood-opacity="0" result="BackgroundImageFix"/>
<feColorMatrix in="SourceAlpha" type="matrix" values="0 0 0 0 0 0 0 0 0 0 0 0 0 0 0 0 0 0 127 0"/>
<feOffset dy="1"/>
<feGaussianBlur stdDeviation="1.5"/>
<feColorMatrix type="matrix" values="0 0 0 0 0 0 0 0 0 0 0 0 0 0 0 0 0 0 0.2 0"/>
<feBlend mode="normal" in2="BackgroundImageFix" result="effect1_dropShadow"/>
<feColorMatrix in="SourceAlpha" type="matrix" values="0 0 0 0 0 0 0 0 0 0 0 0 0 0 0 0 0 0 127 0"/>
<feOffset dy="2"/>
<feGaussianBlur stdDeviation="1"/>
<feColorMatrix type="matrix" values="0 0 0 0 0 0 0 0 0 0 0 0 0 0 0 0 0 0 0.12 0"/>
<feBlend mode="normal" in2="effect1_dropShadow" result="effect2_dropShadow"/>
<feColorMatrix in="SourceAlpha" type="matrix" values="0 0 0 0 0 0 0 0 0 0 0 0 0 0 0 0 0 0 127 0"/>
<feOffset/>
<feGaussianBlur stdDeviation="1"/>
<feColorMatrix type="matrix" values="0 0 0 0 0 0 0 0 0 0 0 0 0 0 0 0 0 0 0.14 0"/>
<feBlend mode="normal" in2="effect2_dropShadow" result="effect3_dropShadow"/>
<feBlend mode="normal" in="SourceGraphic" in2="effect3_dropShadow" result="shape"/>
</filter>
</defs>
</svg>
