<svg width="253" height="67" viewBox="0 0 253 67" fill="none" xmlns="http://www.w3.org/2000/svg">
<g filter="url(#filter0_ddd)">
<rect x="3" y="2" width="247" height="61" rx="30.5" fill="#212121"/>
</g>
<mask id="mask0" mask-type="alpha" maskUnits="userSpaceOnUse" x="3" y="2" width="247" height="61">
<rect x="3" y="2" width="247" height="61" rx="30.5" fill="black"/>
</mask>
<g mask="url(#mask0)">
<path fill-rule="evenodd" clip-rule="evenodd" d="M3 2H250V63H3V2Z" fill="white" fill-opacity="0.12"/>
</g>
<path d="M88.0384 39.36V38.4L87.8284 31.83L87.4984 30.84L87.7384 29.58L88.0384 22.2L88.0984 20.16L86.8684 19.95L85.1284 19.98V22.38L85.4284 22.8L85.1284 23.73V26.31L84.1384 24.69L83.8984 24.57L83.1484 23.37L80.4484 19.65L78.0784 20.31V21.87L78.1984 24.99L78.3184 26.7L78.1984 32.94L78.4684 33.54L78.2284 34.41L78.0484 38.67V39.18L78.1384 39.45L77.9284 41.85L79.2184 42.09L80.9884 42.03L81.0484 40.11L80.9584 39.69L80.9884 36.57L80.7184 35.43L80.8684 34.35L80.9284 27.51L80.5684 27.12L80.5384 27.06L80.9584 25.98V24.36L81.7384 25.44L82.9684 27.15L83.8384 28.2L84.2584 28.86L84.6784 29.31L85.1584 30.12L85.1884 33.24L85.2784 33.81L85.1884 33.96L85.1584 36.84L85.1884 39.69L85.1584 42.03L86.1784 42.09L87.8284 42.06L88.2184 41.04L88.0384 39.36ZM97.003 19.89L96.733 19.92H95.623L95.563 20.13L95.383 21.03L95.263 21.21L93.643 25.26L93.793 25.59L93.253 25.98L91.633 29.91L91.393 30.06L91.453 31.95L92.173 33.48L93.253 36.03L94.153 37.89H94.483L94.393 38.4L95.443 41.01L95.473 42L98.203 42.03L98.263 41.7L98.623 40.74L100.243 36.9L100.933 35.46L100.963 34.98L101.203 34.68L102.673 31.71L102.763 30.06L101.743 27.84L100.933 26.04H100.633L100.483 25.23L98.953 21.48L98.353 19.83L97.003 19.89ZM97.063 38.19L95.743 34.74L95.143 33.51L94.543 33.09L94.843 32.73L94.573 31.86L94.183 30.87L94.153 30.51L95.143 27.93L94.933 27.45L95.353 27.33L97.003 22.98L97.183 23.55L97.873 25.38L98.413 25.71L98.143 26.07L99.313 29.1L99.673 30.12L99.913 30.87L98.443 34.47L98.473 35.01H98.503L98.143 35.37L97.183 38.52L97.063 38.19ZM114.26 36.09L114.23 36.3L113.15 30.9L112.97 30.57V29.76L112.76 29.13L111.38 28.86L110.21 29.04L108.65 36.21L108.38 27.72V27.75L108.29 25.11L108.05 23.46L108.44 20.19L107.51 19.74L106.52 19.92L106.58 19.89L105.08 20.01L105.32 24L105.5 24.21L105.74 31.05L106.1 31.35L105.98 31.92L106.1 34.68L106.31 39.6L106.4 40.53V41.91L107.93 42.12H108.11L109.34 42.09V41.16L110.27 38.1V37.65L111.47 33.57L112.46 37.74L112.94 37.89L112.79 38.73C113 39.51 113.12 39.96 113.33 40.77L113.48 42.09L114.86 42.06L116.42 42V40.05C116.42 40.02 116.45 39.96 116.45 39.96L116.75 36.18L116.81 35.25L116.51 34.89L116.84 34.41L117.41 25.8L117.17 25.53L117.41 25.11L117.77 20.31L116.87 19.89L114.74 19.83L114.68 21.51L114.86 24.18V25.29L114.71 25.59C114.65 27.06 114.53 28.86 114.47 30.33L114.26 36.09ZM127.763 35.85L128.003 36.84L128.273 37.02L128.033 37.32L128.153 38.16L128.543 41.94L129.053 42.21H129.443L131.663 41.49L131.333 40.2L130.883 39.72L131.063 39.48L130.763 37.59L130.013 34.8V34.38L128.573 27.15L128.213 26.88L128.423 26.34L127.463 21.75L127.343 21.45L127.253 21.21L127.283 20.16L126.773 19.92L124.313 20.04L124.013 21.93L123.743 23.19L123.533 24.39L123.863 24.84L123.323 25.47L122.423 29.49V30.03L122.243 30.66L122.153 31.23L121.553 34.92L121.583 35.52L121.253 35.85L120.953 37.74L120.143 41.4L121.193 42.06L123.053 42.24L123.383 40.23L123.173 39.39L123.443 39.06L123.773 36.93L124.373 36.69L124.643 36.57L126.653 36.09L127.253 35.67H127.283L127.703 35.61L127.763 35.85ZM125.003 28.98L124.853 28.5L125.153 28.35L125.753 24.69L126.203 27.87L126.323 28.41L126.443 29.97L127.043 33.21L126.203 33.42L124.253 34.02L124.283 33.81L124.643 31.86L124.613 31.89L125.003 28.98ZM145.462 29.55L145.492 32.04L145.612 32.4L145.672 32.64L145.492 37.38L145.462 37.56L144.442 35.34L143.962 35.4L143.932 34.47L142.162 31.56L141.622 30.69L142.012 30.09L142.702 28.77L143.872 26.85L146.152 23.64L146.122 23.22L147.172 22.32L147.862 21.15L147.082 20.43L146.752 20.19L145.612 19.53L144.202 21.48L144.262 21.81L142.672 23.73L142.372 24.54L140.092 28.02L139.522 29.1L139.372 29.31L138.922 29.61L138.862 31.83L140.302 34.02L141.202 35.25L141.892 36.57L141.922 36.6L143.392 39.24L144.442 40.83L144.802 41.55L145.192 42.33L148.042 42.03L148.012 40.68L147.742 40.26L148.012 40.08L148.162 32.64L148.072 32.46L148.432 30.33L148.072 29.43L145.462 29.55ZM155.392 32.76L156.592 35.19L156.862 35.88L157.972 37.98L158.332 38.16L158.302 38.67L159.352 41.07L160.072 42.24L162.502 40.89L162.532 40.02L161.542 38.97L161.002 37.83V37.86L160.582 36.99L160.402 36.9V36.51L159.202 34.47C158.992 34.17 158.812 34.02 158.572 33.75V33.24C158.392 32.88 158.032 32.37 157.822 31.95L158.662 30.81L159.172 30.18L160.132 29.04L161.512 27.36L161.722 25.56L160.282 24.24C160.252 24.24 159.772 24.39 159.742 24.36L159.562 23.61L154.792 19.47L152.422 20.43L152.542 23.01L152.692 28.74L152.452 29.34L152.512 30.9L152.632 34.41V35.58L152.902 35.97L152.452 37.14L152.272 41.91L154.252 42.09L155.452 41.61L155.422 39.12L155.332 38.85L155.242 35.85L155.212 32.58L155.392 32.76ZM155.272 29.94L155.152 27.27L155.092 26.94L155.032 26.76L154.912 26.22L155.152 25.65V25.35L155.212 23.04L157.972 25.77L158.182 25.92L158.782 26.67L158.452 27.09C158.062 27.63 157.342 28.56 156.922 29.07L155.422 30.93L155.212 31.05L155.272 29.94ZM171.808 35.85L172.048 36.84L172.318 37.02L172.078 37.32L172.198 38.16L172.588 41.94L173.098 42.21H173.488L175.708 41.49L175.378 40.2L174.928 39.72L175.108 39.48L174.808 37.59L174.058 34.8V34.38L172.618 27.15L172.257 26.88L172.468 26.34L171.508 21.75L171.388 21.45L171.298 21.21L171.328 20.16L170.818 19.92L168.358 20.04L168.058 21.93L167.788 23.19L167.578 24.39L167.908 24.84L167.368 25.47L166.468 29.49V30.03L166.288 30.66L166.198 31.23L165.598 34.92L165.628 35.52L165.298 35.85L164.998 37.74L164.188 41.4L165.238 42.06L167.098 42.24L167.428 40.23L167.218 39.39L167.488 39.06L167.818 36.93L168.418 36.69L168.688 36.57L170.698 36.09L171.298 35.67H171.328L171.748 35.61L171.808 35.85ZM169.048 28.98L168.898 28.5L169.198 28.35L169.798 24.69L170.248 27.87L170.368 28.41L170.488 29.97L171.088 33.21L170.248 33.42L168.298 34.02L168.328 33.81L168.688 31.86L168.658 31.89L169.048 28.98Z" fill="white"/>
<defs>
<filter id="filter0_ddd" x="0" y="0" width="253" height="67" filterUnits="userSpaceOnUse" color-interpolation-filters="sRGB">
<feFlood flood-opacity="0" result="BackgroundImageFix"/>
<feColorMatrix in="SourceAlpha" type="matrix" values="0 0 0 0 0 0 0 0 0 0 0 0 0 0 0 0 0 0 127 0"/>
<feOffset dy="1"/>
<feGaussianBlur stdDeviation="1.5"/>
<feColorMatrix type="matrix" values="0 0 0 0 0 0 0 0 0 0 0 0 0 0 0 0 0 0 0.2 0"/>
<feBlend mode="normal" in2="BackgroundImageFix" result="effect1_dropShadow"/>
<feColorMatrix in="SourceAlpha" type="matrix" values="0 0 0 0 0 0 0 0 0 0 0 0 0 0 0 0 0 0 127 0"/>
<feOffset dy="2"/>
<feGaussianBlur stdDeviation="1"/>
<feColorMatrix type="matrix" values="0 0 0 0 0 0 0 0 0 0 0 0 0 0 0 0 0 0 0.12 0"/>
<feBlend mode="normal" in2="effect1_dropShadow" result="effect2_dropShadow"/>
<feColorMatrix in="SourceAlpha" type="matrix" values="0 0 0 0 0 0 0 0 0 0 0 0 0 0 0 0 0 0 127 0"/>
<feOffset/>
<feGaussianBlur stdDeviation="1"/>
<feColorMatrix type="matrix" values="0 0 0 0 0 0 0 0 0 0 0 0 0 0 0 0 0 0 0.14 0"/>
<feBlend mode="normal" in2="effect2_dropShadow" result="effect3_dropShadow"/>
<feBlend mode="normal" in="SourceGraphic" in2="effect3_dropShadow" result="shape"/>
</filter>
</defs>
</svg>
