<svg width="333" height="86" viewBox="0 0 333 86" fill="none" xmlns="http://www.w3.org/2000/svg">
<g filter="url(#filter0_d)">
<path d="M14.6 45.2L18.6 53.3L19.5 55.6L23.2 62.6L24.4 63.2L24.3 64.9L27.8 72.9L30.2 76.8L38.3 72.3L38.4 69.4L35.1 65.9L33.3 62.1V62.2L31.9 59.3L31.3 59V57.7L27.3 50.9C26.6 49.9 26 49.4 25.2 48.5V46.8C24.6 45.6 23.4 43.9 22.7 42.5L25.5 38.7L27.2 36.6L30.4 32.8L35 27.2L35.7 21.2L30.9 16.8C30.8 16.8 29.2 17.3 29.1 17.2L28.5 14.7L12.6 0.900024L4.7 4.10003L5.1 12.7L5.6 31.8L4.8 33.8L5 39L5.4 50.7V54.6L6.3 55.9L4.8 59.8L4.2 75.7L10.8 76.3L14.8 74.7L14.7 66.4L14.4 65.5L14.1 55.5L14 44.6L14.6 45.2ZM14.2 35.8L13.8 26.9L13.6 25.8L13.4 25.2L13 23.4L13.8 21.5V20.5L14 12.8L23.2 21.9L23.9 22.4L25.9 24.9L24.8 26.3C23.5 28.1 21.1 31.2 19.7 32.9L14.7 39.1L14 39.5L14.2 35.8ZM66.818 55.5L67.618 58.8L68.518 59.4L67.718 60.4L68.118 63.2L69.418 75.8L71.118 76.7H72.418L79.818 74.3L78.718 70L77.218 68.4L77.818 67.6L76.818 61.3L74.318 52V50.6L69.518 26.5L68.318 25.6L69.018 23.8L65.818 8.50003L65.418 7.50002L65.118 6.70003L65.218 3.20003L63.518 2.40002L55.318 2.80002L54.318 9.10003L53.418 13.3L52.718 17.3L53.818 18.8L52.018 20.9L49.018 34.3V36.1L48.418 38.2L48.118 40.1L46.118 52.4L46.218 54.4L45.118 55.5L44.118 61.8L41.418 74L44.918 76.2L51.118 76.8L52.218 70.1L51.518 67.3L52.418 66.2L53.518 59.1L55.518 58.3L56.418 57.9L63.118 56.3L65.118 54.9H65.218L66.618 54.7L66.818 55.5ZM57.618 32.6L57.118 31L58.118 30.5L60.118 18.3L61.618 28.9L62.018 30.7L62.418 35.9L64.418 46.7L61.618 47.4L55.118 49.4L55.218 48.7L56.418 42.2L56.318 42.3L57.618 32.6ZM102.945 34.5L103.045 42.8L103.445 44L103.645 44.8L103.045 60.6L102.945 61.2L99.5453 53.8L97.9453 54L97.8453 50.9L91.9453 41.2L90.1453 38.3L91.4453 36.3L93.7453 31.9L97.6453 25.5L105.245 14.8L105.145 13.4L108.645 10.4L110.945 6.50002L108.345 4.10003L107.245 3.30002L103.445 1.10003L98.7453 7.60003L98.9453 8.70003L93.6453 15.1L92.6453 17.8L85.0453 29.4L83.1453 33L82.6453 33.7L81.1453 34.7L80.9453 42.1L85.7453 49.4L88.7453 53.5L91.0453 57.9L91.1453 58L96.0453 66.8L99.5453 72.1L100.745 74.5L102.045 77.1L111.545 76.1L111.445 71.6L110.545 70.2L111.445 69.6L111.945 44.8L111.645 44.2L112.845 37.1L111.645 34.1L102.945 34.5ZM156.845 67.2V64L156.145 42.1L155.045 38.8L155.845 34.6L156.845 10L157.045 3.20003L152.945 2.50003L147.145 2.60003V10.6L148.145 12L147.145 15.1V23.7L143.845 18.3L143.045 17.9L140.545 13.9L131.545 1.50002L123.645 3.70003V8.90003L124.045 19.3L124.445 25L124.045 45.8L124.945 47.8L124.145 50.7L123.545 64.9V66.6L123.845 67.5L123.145 75.5L127.445 76.3L133.345 76.1L133.545 69.7L133.245 68.3L133.345 57.9L132.445 54.1L132.945 50.5L133.145 27.7L131.945 26.4L131.845 26.2L133.245 22.6V17.2L135.845 20.8L139.945 26.5L142.845 30L144.245 32.2L145.645 33.7L147.245 36.4L147.345 46.8L147.645 48.7L147.345 49.2L147.245 58.8L147.345 68.3L147.245 76.1L150.645 76.3L156.145 76.2L157.445 72.8L156.845 67.2ZM191.427 55.5L192.227 58.8L193.127 59.4L192.327 60.4L192.727 63.2L194.027 75.8L195.727 76.7H197.027L204.427 74.3L203.327 70L201.827 68.4L202.427 67.6L201.427 61.3L198.927 52V50.6L194.127 26.5L192.927 25.6L193.627 23.8L190.427 8.50003L190.027 7.50002L189.727 6.70003L189.827 3.20003L188.127 2.40002L179.927 2.80002L178.927 9.10003L178.027 13.3L177.327 17.3L178.427 18.8L176.627 20.9L173.627 34.3V36.1L173.027 38.2L172.727 40.1L170.727 52.4L170.827 54.4L169.727 55.5L168.727 61.8L166.027 74L169.527 76.2L175.727 76.8L176.827 70.1L176.127 67.3L177.027 66.2L178.127 59.1L180.127 58.3L181.027 57.9L187.727 56.3L189.727 54.9H189.827L191.227 54.7L191.427 55.5ZM182.227 32.6L181.727 31L182.727 30.5L184.727 18.3L186.227 28.9L186.627 30.7L187.027 35.9L189.027 46.7L186.227 47.4L179.727 49.4L179.827 48.7L181.027 42.2L180.927 42.3L182.227 32.6ZM222.608 45.2L226.608 53.3L227.508 55.6L231.208 62.6L232.408 63.2L232.308 64.9L235.808 72.9L238.208 76.8L246.308 72.3L246.408 69.4L243.108 65.9L241.308 62.1V62.2L239.908 59.3L239.308 59V57.7L235.308 50.9C234.608 49.9 234.008 49.4 233.208 48.5V46.8C232.608 45.6 231.408 43.9 230.708 42.5L233.508 38.7L235.208 36.6L238.408 32.8L243.008 27.2L243.708 21.2L238.908 16.8C238.808 16.8 237.208 17.3 237.108 17.2L236.508 14.7L220.608 0.900024L212.708 4.10003L213.108 12.7L213.608 31.8L212.808 33.8L213.008 39L213.408 50.7V54.6L214.308 55.9L212.808 59.8L212.208 75.7L218.808 76.3L222.808 74.7L222.708 66.4L222.408 65.5L222.108 55.5L222.008 44.6L222.608 45.2ZM222.208 35.8L221.808 26.9L221.608 25.8L221.408 25.2L221.008 23.4L221.808 21.5V20.5L222.008 12.8L231.208 21.9L231.908 22.4L233.908 24.9L232.808 26.3C231.508 28.1 229.108 31.2 227.708 32.9L222.708 39.1L222.008 39.5L222.208 35.8ZM266.649 2.30003L265.749 2.40002H262.049L261.849 3.10003L261.249 6.10002L260.849 6.70003L255.449 20.2L255.949 21.3L254.149 22.6L248.749 35.7L247.949 36.2L248.149 42.5L250.549 47.6L254.149 56.1L257.149 62.3H258.249L257.949 64L261.449 72.7L261.549 76L270.649 76.1L270.849 75L272.049 71.8L277.449 59L279.749 54.2L279.849 52.6L280.649 51.6L285.549 41.7L285.849 36.2L282.449 28.8L279.749 22.8H278.749L278.249 20.1L273.149 7.60003L271.149 2.10003L266.649 2.30003ZM266.849 63.3L262.449 51.8L260.449 47.7L258.449 46.3L259.449 45.1L258.549 42.2L257.249 38.9L257.149 37.7L260.449 29.1L259.749 27.5L261.149 27.1L266.649 12.6L267.249 14.5L269.549 20.6L271.349 21.7L270.449 22.9L274.349 33L275.549 36.4L276.349 38.9L271.449 50.9L271.549 52.7H271.649L270.449 53.9L267.249 64.4L266.849 63.3ZM293.451 3.00003L294.551 10.1L294.351 18.1L294.851 30.7L295.751 36.1L295.151 57.7V58.3L294.951 59.9L296.151 61.3L294.451 65.3L294.551 65.7L294.251 65.8L294.151 76.2L299.451 76.3L304.751 76.1L304.851 71L304.451 69.1L304.351 68L304.251 63.1L303.851 58.3V41.9L307.851 50.2L307.751 50.4L311.151 55.9L310.651 57.2L315.951 69.1L318.851 76.5L321.351 76.6L328.551 72.6L325.651 66.1L324.251 65.8L324.751 64.4L321.351 58.7L317.851 51L311.951 37.5L311.451 36.7L318.651 23L318.351 22.7L318.651 22.2L324.751 12.1L327.651 6.80003L324.551 4.40003L318.451 2.00003L315.351 9.30002L315.751 11.8L312.951 14.6L311.251 18.9L307.251 28.5L305.551 31.2L304.051 35.1L303.751 35.9V32.9L303.551 28.1L304.551 3.30002L300.751 2.00003L293.451 3.00003Z" fill="#F9A825"/>
</g>
<defs>
<filter id="filter0_d" x="0.200001" y="0.900024" width="332.351" height="84.2" filterUnits="userSpaceOnUse" color-interpolation-filters="sRGB">
<feFlood flood-opacity="0" result="BackgroundImageFix"/>
<feColorMatrix in="SourceAlpha" type="matrix" values="0 0 0 0 0 0 0 0 0 0 0 0 0 0 0 0 0 0 127 0"/>
<feOffset dy="4"/>
<feGaussianBlur stdDeviation="2"/>
<feColorMatrix type="matrix" values="0 0 0 0 0 0 0 0 0 0 0 0 0 0 0 0 0 0 0.25 0"/>
<feBlend mode="normal" in2="BackgroundImageFix" result="effect1_dropShadow"/>
<feBlend mode="normal" in="SourceGraphic" in2="effect1_dropShadow" result="shape"/>
</filter>
</defs>
</svg>
